<!-- © 2023 by Stratis Dermanoutsos -->
<svg width="512" height="512" viewBox="0 0 512 512" fill="none" xmlns="http://www.w3.org/2000/svg">
<rect width="512" height="512" rx="64" fill="black"/>
<path d="M279.375 237.062C279.375 245.083 278.333 252.323 276.25 258.781C274.271 265.135 271.615 270.76 268.281 275.656C264.948 280.552 261.042 284.719 256.562 288.156C252.083 291.594 247.448 294.406 242.656 296.594C237.865 298.781 232.969 300.396 227.969 301.438C223.073 302.479 218.438 303 214.062 303H57.3438V262.375H214.062C221.875 262.375 227.917 260.083 232.188 255.5C236.562 250.917 238.75 244.771 238.75 237.062C238.75 233.312 238.177 229.875 237.031 226.75C235.885 223.625 234.219 220.917 232.031 218.625C229.948 216.333 227.344 214.562 224.219 213.312C221.198 212.062 217.812 211.438 214.062 211.438H120.625C114.062 211.438 106.979 210.292 99.375 208C91.7708 205.604 84.6875 201.802 78.125 196.594C71.6667 191.385 66.25 184.562 61.875 176.125C57.6042 167.688 55.4688 157.375 55.4688 145.188C55.4688 133 57.6042 122.74 61.875 114.406C66.25 105.969 71.6667 99.1458 78.125 93.9375C84.6875 88.625 91.7708 84.8229 99.375 82.5312C106.979 80.1354 114.062 78.9375 120.625 78.9375H258.906V119.562H120.625C112.917 119.562 106.875 121.906 102.5 126.594C98.2292 131.281 96.0938 137.479 96.0938 145.188C96.0938 153 98.2292 159.198 102.5 163.781C106.875 168.26 112.917 170.5 120.625 170.5H214.062H214.375C218.75 170.604 223.385 171.229 228.281 172.375C233.177 173.417 238.021 175.083 242.812 177.375C247.708 179.667 252.344 182.583 256.719 186.125C261.094 189.562 264.948 193.729 268.281 198.625C271.719 203.521 274.427 209.146 276.406 215.5C278.385 221.854 279.375 229.042 279.375 237.062Z" fill="white"/>
<path fill-rule="evenodd" clip-rule="evenodd" d="M303.723 251.563C304.158 248.225 304.375 244.725 304.375 241.062C304.375 233.042 303.385 225.854 301.406 219.5C300.466 216.481 299.361 213.627 298.092 210.938H368.719C382.156 210.938 394.604 213.281 406.062 217.969C417.521 222.656 427.417 229.167 435.75 237.5C444.083 245.729 450.594 255.625 455.281 267.188C460.073 278.646 462.469 291.146 462.469 304.688V341.25C462.469 354.896 460.073 367.448 455.281 378.906C450.594 390.365 444.083 400.26 435.75 408.594C427.417 416.823 417.521 423.281 406.062 427.969C394.604 432.656 382.156 435 368.719 435H259.031C256.115 435 253.406 434.479 250.906 433.438C248.406 432.396 246.219 430.99 244.344 429.219C242.573 427.344 241.167 425.156 240.125 422.656C239.083 420.156 238.562 417.448 238.562 414.531V322.823C241.583 322.591 244.719 322.129 247.969 321.438C252.969 320.396 257.865 318.781 262.656 316.594C267.448 314.406 272.083 311.594 276.562 308.156C277.461 307.467 278.336 306.749 279.188 306.001V394.375H368.719C376.635 394.375 383.823 393.125 390.281 390.625C396.844 388.021 402.469 384.427 407.156 379.844C411.844 375.156 415.438 369.583 417.938 363.125C420.542 356.563 421.844 349.271 421.844 341.25V304.688C421.844 296.771 420.542 289.531 417.938 282.969C415.438 276.406 411.844 270.833 407.156 266.25C402.469 261.563 396.844 257.969 390.281 255.469C383.823 252.865 376.635 251.563 368.719 251.563H303.723ZM238.562 266.375V231.763C240.572 232.067 242.457 232.584 244.219 233.312C247.344 234.562 249.948 236.333 252.031 238.625C254.219 240.917 255.885 243.625 257.031 246.75C258.177 249.875 258.75 253.312 258.75 257.062C258.75 257.27 258.748 257.477 258.745 257.682C258.261 258.313 257.742 258.919 257.188 259.5C252.917 264.083 246.875 266.375 239.062 266.375H238.562Z" fill="white"/>
</svg>
